<svg fill="none" height="48" viewBox="0 0 187 48" width="187" xmlns="http://www.w3.org/2000/svg"><rect fill="#000" height="48" rx="24" width="187"/><path d="m34.252 35.16c.672 0 1.088-.128 1.408-.256v-1.888h-.096c-1.44.32-1.76-.416-1.76-1.76v-7.872c0-3.936-2.592-5.248-6.112-5.248-4.384 0-6.496 2.4-6.592 5.6h2.496c.096-2.496 1.44-3.648 4.128-3.648 2.368 0 3.712 1.056 3.712 2.912 0 1.792-1.632 2.016-3.968 2.368-4.128.64-7.2 1.44-7.2 5.344 0 3.136 2.464 4.608 5.6 4.608 2.816 0 4.512-1.344 5.504-2.624h.032c.256 1.696 1.152 2.464 2.848 2.464zm-7.808-1.824c-1.696 0-3.424-.48-3.424-2.688 0-2.432 2.08-2.88 4.672-3.36 1.408-.256 2.912-.672 3.776-1.216v2.816c0 1.92-1.568 4.448-5.024 4.448zm17.5285 2.144c2.336 0 3.872-.896 5.12-2.496h.064v2.016h2.592v-22.88h-2.592v8.672h-.064c-1.056-1.568-2.848-2.72-5.184-2.72-4.096 0-7.264 3.2-7.264 8.704 0 5.312 2.816 8.704 7.328 8.704zm.096-2.176c-3.168 0-4.768-2.752-4.768-6.496 0-3.712 1.6-6.528 4.736-6.528 3.424 0 5.28 2.688 5.28 6.528 0 3.744-1.568 6.496-5.248 6.496zm17.5915 2.176c2.336 0 3.872-.896 5.12-2.496h.064v2.016h2.592v-22.88h-2.592v8.672h-.064c-1.056-1.568-2.848-2.72-5.184-2.72-4.096 0-7.264 3.2-7.264 8.704 0 5.312 2.816 8.704 7.328 8.704zm.096-2.176c-3.168 0-4.768-2.752-4.768-6.496 0-3.712 1.6-6.528 4.736-6.528 3.424 0 5.28 2.688 5.28 6.528 0 3.744-1.568 6.496-5.248 6.496zm15.2293-12.736h2.4v11.328c0 2.336 1.536 3.2 3.648 3.2.768 0 1.4719-.096 2.08-.224v-2.24h-.096c-.2881.096-.864.224-1.376.224-1.056 0-1.664-.384-1.664-1.536v-10.752h3.2v-2.112h-3.2v-5.216h-2.592v5.216h-2.4zm21.5885 14.912c6.9122 0 11.2002-5.088 11.2002-11.936s-4.288-11.936-11.2002-11.936c-6.912 0-11.2 5.088-11.2 11.936s4.288 11.936 11.2 11.936zm0-2.528c-5.376 0-8.2561-4.032-8.2561-9.408s2.8801-9.44 8.2561-9.44c5.3762 0 8.2562 4.064 8.2562 9.44s-2.88 9.408-8.2562 9.408zm27.2142 2.528c4.48 0 7.136-3.392 7.136-8.704 0-5.504-2.848-8.704-7.04-8.704-2.4 0-4.064 1.056-5.312 2.752h-.064v-8.704h-2.592v22.88h2.592v-2.176h.064c1.344 1.856 2.976 2.656 5.216 2.656zm-.192-2.176c-3.52 0-5.248-2.784-5.248-6.496 0-3.584 1.664-6.528 5.28-6.528 3.136 0 4.64 2.816 4.64 6.528 0 3.744-1.504 6.496-4.672 6.496zm22.906 1.856c.672 0 1.088-.128 1.408-.256v-1.888h-.096c-1.44.32-1.76-.416-1.76-1.76v-7.872c0-3.936-2.592-5.248-6.112-5.248-4.384 0-6.496 2.4-6.592 5.6h2.496c.096-2.496 1.44-3.648 4.128-3.648 2.368 0 3.712 1.056 3.712 2.912 0 1.792-1.632 2.016-3.968 2.368-4.128.64-7.2 1.44-7.2 5.344 0 3.136 2.464 4.608 5.6 4.608 2.816 0 4.512-1.344 5.504-2.624h.032c.256 1.696 1.152 2.464 2.848 2.464zm-7.808-1.824c-1.696 0-3.424-.48-3.424-2.688 0-2.432 2.08-2.88 4.672-3.36 1.408-.256 2.912-.672 3.776-1.216v2.816c0 1.92-1.568 4.448-5.024 4.448zm17.721 7.168c4.384 0 7.264-2.048 7.264-6.4v-15.648h-2.592v2.112h-.064c-1.12-1.568-2.656-2.496-5.056-2.496-3.84 0-7.072 3.008-7.072 8.16 0 4.768 2.944 8.192 7.232 8.192 2.368 0 3.68-.992 4.896-2.56h.064v2.336c0 2.88-1.696 4.256-4.736 4.256-2.56 0-4.289-.704-4.544-2.528h-2.4c.288 2.848 2.72 4.576 7.008 4.576zm-.16-8.256c-3.072 0-4.704-2.368-4.704-5.984 0-3.584 1.568-6.016 4.672-6.016 3.52 0 5.056 2.24 5.056 5.856 0 3.488-1.216 6.144-5.024 6.144z" fill="#fff"/></svg>