<svg fill="none" height="32" viewBox="0 0 65 32" width="65" xmlns="http://www.w3.org/2000/svg" xmlns:xlink="http://www.w3.org/1999/xlink"><clipPath id="a"><path d="m0 0h65v32h-65z"/></clipPath><g clip-path="url(#a)" fill="#000"><path d="m44.6875 13.8333c-2.1057 0-3.1687 1.62-3.1687 4s1.1036 4 3.1891 4c2.5796 0 3.3854-1.7734 3.3854-4.1 0-2.3267-1.0021-3.9-3.4058-3.9z"/><path d="m32.4999 10.1868h-.0406s-.413 1.28-.7177 2.1533l-1.8417 5.12h5.0714l-1.7943-5.12c-.2912-.8533-.6771-2.1533-.6771-2.1533z"/><path d="m48.75 0h-32.5c-4.3098 0-8.44302 1.68571-11.49049 4.68629-3.04746 3.00058-4.75951 7.07021-4.75951 11.31371s1.71205 8.3131 4.75951 11.3137c3.04747 3.0006 7.18069 4.6863 11.49049 4.6863h32.5c4.3098 0 8.443-1.6857 11.4905-4.6863s4.7595-7.0702 4.7595-11.3137-1.712-8.31313-4.7595-11.31371-7.1807-4.68629-11.4905-4.68629zm-28.688 24c-.6937.0312-1.3838-.1159-2.0023-.4268s-1.1442-.775-1.5253-1.3465h-.0474v1.44h-1.7537v-15.25337h1.7537v5.79997h.0474c.3955-.5775.9319-1.048 1.5601-1.3683.6281-.3203 1.3279-.4802 2.0352-.465 2.837 0 4.7396 2.1333 4.7396 5.8067.0271 3.54-1.774 5.8133-4.8073 5.8133zm17.0896-.32-1.6454-4.6667h-6.175l-1.6656 4.6667h-2.0312l5.701-15.25333h2.187l5.7484 15.24003zm12.6073-.6c0 2.9067-1.95 4.2667-4.9157 4.2667-2.9656 0-4.55-1.1467-4.7396-3.0467h1.625c.1761 1.2133 1.3542 1.6867 3.074 1.6867 2.0313 0 3.2094-.92 3.2094-2.84v-1.5734h-.0406c-.3582.5405-.8515.9813-1.4324 1.2802-.581.2989-1.2302.4457-1.8854.4265-2.9046 0-4.8953-2.28-4.8953-5.46 0-3.4333 2.187-5.44 4.787-5.44.6686-.0369 1.3355.0971 1.9359.3892s1.1137.7322 1.4902 1.2775h.0406v-1.38h1.7536z"/><path d="m19.9537 13.8533c-2.4443 0-3.575 1.96-3.575 4.3533s1.1713 4.3267 3.5546 4.3267c2.1464 0 3.162-1.8334 3.162-4.3267s-1.0156-4.3533-3.1416-4.3533z"/></g></svg>