<svg fill="none" height="48" viewBox="0 0 320 48" width="320" xmlns="http://www.w3.org/2000/svg"><rect fill="#000" height="48" rx="24" width="320"/><path d="m103.332 35.448c4.128 0 6.72-2.304 7.072-6.272h-2.56c-.224 2.56-1.824 4.096-4.512 4.096-3.52 0-5.344-2.88-5.344-6.528s1.824-6.56 5.344-6.56c2.496 0 4.064 1.376 4.448 3.616h2.624c-.576-3.52-3.168-5.76-7.072-5.76-4.928 0-8 3.904-8 8.704s3.072 8.704 8 8.704zm12.114-23.328h-2.592v22.88h2.592v-10.176c0-2.72 1.92-4.576 4.544-4.576 2.336 0 3.744 1.216 3.744 3.36v11.392h2.592v-11.616c0-3.424-2.112-5.312-5.568-5.312-2.4 0-4.064.992-5.248 2.56h-.064zm21.386 23.328c3.744 0 6.336-2.016 7.104-5.568h-2.528c-.576 2.24-2.176 3.392-4.576 3.392-3.328 0-5.152-2.56-5.344-5.92h12.8c0-5.472-2.656-9.312-7.616-9.312-4.704 0-7.84 3.904-7.84 8.704s2.944 8.704 8 8.704zm-.16-15.36c2.976 0 4.672 2.016 4.832 5.312h-9.952c.384-3.008 2.048-5.312 5.12-5.312zm17.223 15.36c4.128 0 6.72-2.304 7.072-6.272h-2.56c-.224 2.56-1.824 4.096-4.512 4.096-3.52 0-5.344-2.88-5.344-6.528s1.824-6.56 5.344-6.56c2.496 0 4.064 1.376 4.448 3.616h2.624c-.576-3.52-3.168-5.76-7.072-5.76-4.928 0-8 3.904-8 8.704s3.072 8.704 8 8.704zm9.905-.448h2.88v-8.096l3.68-3.68 8.608 11.776h3.36l-10.016-13.728 9.248-9.152h-3.616l-11.264 11.36v-11.36h-2.88zm26.001.448c4.96 0 7.968-3.904 7.968-8.704s-3.008-8.704-7.968-8.704c-4.928 0-8 3.904-8 8.704s3.072 8.704 8 8.704zm0-2.176c-3.52 0-5.344-2.88-5.344-6.528s1.824-6.56 5.344-6.56 5.312 2.912 5.312 6.56-1.792 6.528-5.312 6.528zm23.673 1.728v-16.544h-2.592v10.176c0 2.624-1.696 4.608-4.32 4.608-2.336 0-3.712-1.248-3.712-3.392v-11.392h-2.592v11.456c0 3.424 2.176 5.472 5.568 5.472 2.4 0 3.808-1.056 4.992-2.656h.064v2.272zm2.449-14.432h2.4v11.328c0 2.336 1.536 3.2 3.648 3.2.768 0 1.472-.096 2.08-.224v-2.24h-.096c-.288.096-.864.224-1.376.224-1.056 0-1.664-.384-1.664-1.536v-10.752h3.2v-2.112h-3.2v-5.216h-2.592v5.216h-2.4z" fill="#fff"/></svg>