<?xml version="1.0" encoding="utf-8"?>
<!-- Generator: Adobe Illustrator 25.4.1, SVG Export Plug-In . SVG Version: 6.00 Build 0)  -->
<svg version="1.1" id="Layer_1" xmlns="http://www.w3.org/2000/svg" xmlns:xlink="http://www.w3.org/1999/xlink" x="0px" y="0px"
	 viewBox="0 0 32 32" style="enable-background:new 0 0 32 32;" xml:space="preserve">


	<path class="st0" d="M30.2,30.7c-0.1,0-0.3,0-0.4-0.1L1.4,2.1c-0.2-0.2-0.2-0.5,0-0.7s0.5-0.2,0.7,0l28.4,28.4
		c0.2,0.2,0.2,0.5,0,0.7C30.5,30.7,30.4,30.7,30.2,30.7z" fill="currentColor"/>


	<path class="st0" d="M1.8,30.7c-0.1,0-0.3,0-0.4-0.1c-0.2-0.2-0.2-0.5,0-0.7L29.9,1.4c0.2-0.2,0.5-0.2,0.7,0s0.2,0.5,0,0.7
		L2.1,30.6C2,30.7,1.9,30.7,1.8,30.7z" fill="currentColor"/>

</svg>
