<svg enable-background="new 0 0 45 49" viewBox="0 0 45 49" xmlns="http://www.w3.org/2000/svg"><path d="m32.5 3.3c6.4-.1 11.5 5.1 11.5 11.4s-5.1 11.5-11.5 11.5h-20c-6.4 0-11.5-5.1-11.5-11.5s5.1-11.5 11.5-11.5z" fill="#fff" stroke="#fff"/><path clip-rule="evenodd" d="m32.5 5.2c5.2 0 9.5 4.3 9.5 9.5s-4.3 9.5-9.5 9.5-9.5-4.2-9.5-9.5 4.3-9.5 9.5-9.5z" fill-rule="evenodd"/><path d="m12.8 46.6c.8 0 1.4-.3 1.8-.9v.7h.9v-8h-.9v3c-.4-.6-1-1-1.8-1-1.4 0-2.5 1.1-2.5 3.1 0 1.9.9 3.1 2.5 3.1zm.1-.8c-1.1 0-1.7-1-1.7-2.3s.6-2.3 1.7-2.3c1.2 0 1.9.9 1.9 2.3-.1 1.3-.6 2.3-1.9 2.3zm8.4.6c.2 0 .4 0 .5-.1v-.7c-.5.1-.6-.1-.6-.6v-2.8c0-1.4-.9-1.8-2.1-1.8-1.5 0-2.3.8-2.3 2h.9c0-.9.5-1.3 1.4-1.3.8 0 1.3.4 1.3 1s-.6.7-1.4.8c-1.4.2-2.5.5-2.5 1.9 0 1.1.9 1.6 2 1.6 1 0 1.6-.5 1.9-.9 0 .7.4.9.9.9zm-2.7-.6c-.6 0-1.2-.2-1.2-.9 0-.9.7-1 1.6-1.2.5-.1 1-.2 1.3-.4v1c.1.6-.5 1.5-1.7 1.5zm4 .6h1v-3.4h2.2c1.1 0 1.5.4 1.6 1.6.1 1.3.1 1.7.3 1.8h1.1c-.1-.1-.3-.4-.4-1.7-.1-1.2-.3-1.8-1.2-2 1-.3 1.4-1 1.4-2 0-1.3-1-2.2-2.4-2.2h-3.7v7.9zm1.1-7.2h2.4c1.2 0 1.6.5 1.6 1.5 0 .9-.6 1.5-1.7 1.5h-2.4v-3zm10 7.2h1.1l-2.5-3.7 2.2-2.1h-1.2l-2.5 2.5v-4.7h-.9v8h.9v-2.3l.9-.8z" fill="currentColor" /></svg>