<svg height="48" viewBox="0 0 48 48" width="48" xmlns="http://www.w3.org/2000/svg"><path d="m24 0c-4.7467 0-9.3869 1.40758-13.3337 4.04473-3.94676 2.63715-7.0229 6.38547-8.8394 10.77087-1.8165013 4.3854-2.291781 9.211-1.365736 13.8666.926046 4.6555 3.211826 8.9319 6.568286 12.2884 3.35645 3.3564 7.63285 5.6422 12.28835 6.5682 4.6556.9261 9.4812.4508 13.8666-1.3657s8.1337-4.8926 10.7709-8.8394c2.6371-3.9468 4.0447-8.587 4.0447-13.3337 0-6.3652-2.5286-12.4697-7.0294-16.97056-4.5009-4.50088-10.6054-7.02944-16.9706-7.02944zm-.7125 12.8025c.0476-.2876.0727-.5785.075-.87-.0246-.6258.0934-1.249.345-1.8225.2578-.51502.5432-1.01575.855-1.5.1286-.00308.2567-.01815.3825-.045.1765-.05424.3571-.09436.54-.12.1647-.05302.3325-.0956.5025-.1275.1262-.04331.2571-.07101.39-.0825.1637.05258.312.14427.4322.26711.1203.12285.2087.27315.2578.43789.1196.35984.2754.70662.465 1.035-.0112.2199-.0112.4401 0 .66.0518.2036.0794.4125.0825.6225-.0127.2156-.0662.4268-.1575.6225-.1034.2777-.1444.5747-.12.87-.0619.239-.137.4743-.225.705-.0794.2803-.1981.5479-.3525.795-.1275.2239-.2983.4202-.5025.5775-.0916.07-.1982.1179-.3113.14-.1132.0221-.23.0178-.3412-.0125-.4255-.02-.8388-.1491-1.2-.375-.396-.2567-.7169-.6139-.93-1.035-.0951-.0955-.1627-.2149-.1957-.3455-.0329-.1307-.0301-.2678.0082-.397zm4.8675 19.785-.75.825-.855.825c-.2775.255-.4725.42-.5775.5025s-.2475.525-.5025.99-.54.9525-.8475 1.4475c-.2906.4489-.6275.8662-1.005 1.245-.3375.3825-.63.5775-.8925.5775-.2204-.0121-.4332-.0848-.615-.21-.2249-.1229-.4216-.2915-.5775-.495-.1785-.1889-.3345-.3978-.465-.6225-.1022-.2051-.1561-.4309-.1575-.66v-.66c.0045-.1932-.008-.3865-.0375-.5775.0001-.0348-.007-.0692-.0207-.1012-.0138-.0319-.0339-.0608-.0592-.0846-.0253-.0239-.0552-.0424-.0879-.0543s-.0675-.017-.1022-.0149v-.75l.3075-1.1625v-1.9725c-.0127-.3396.0408-.6784.1575-.9975.1151-.3039.1686-.6277.1575-.9525v-.3675c.0123-.283.0628-.563.15-.8325.1275-.3525.2625-.75.39-1.155s.24-.8175.345-1.2c.1176-.3485.1833-.7124.195-1.08-.0139-.2552-.1084-.4994-.27-.6975-.0816-.1394-.2009-.2528-.3443-.3271-.1433-.0743-.3048-.1065-.4657-.0929-.1575.0028-.3089.0613-.4275.165-.105.1125-.4275.1725-.9675.1725-.0716-.0518-.1242-.1255-.15-.21-.1107-.1883-.1653-.4042-.1575-.6225v-.66c.0959-.4225.3278-.8019.66-1.08.4753-.5153.9839-.9989 1.5225-1.4475.5416-.4575 1.1075-.8857 1.695-1.2825.3042-.262.6591-.4586 1.0425-.5775.2102-.0036.4182.0436.6062.1376.1881.094.3506.232.4738.4024.27.2925.4223.6745.4275 1.0725l-.345 1.1625c.1667.1986.2733.4405.3075.6975.0246.1513.0371.3042.0375.4575.0047.5066-.0609 1.0114-.195 1.5-.1032.5186-.1535 1.0463-.15 1.575v.33c.0095.1649.0095.3301 0 .495-.0293.1699-.0694.3377-.12.5025-.0525.1875-.105.3975-.15.615v.4575c.0133.2594-.0409.5178-.1575.75-.075.195-.165.4425-.27.75-.0632.2444-.1537.4809-.27.705-.1062.2356-.1599.4915-.1575.75.0088.1553.0365.3089.0825.4575.0577.1867.1331.3675.225.54.1048.1619.2227.3149.3525.4575.1466.1054.322.163.5025.165.1996-.0017.3917-.0764.54-.21.1686-.1236.3113-.279.42-.4575.1182-.1232.2489-.2338.39-.33.1454-.1077.3216-.1655.5025-.165h.75c.0369-.0004.0734.0072.1071.0223s.0636.0373.0879.0651c.0242.0278.0422.0606.0525.096.0104.0354.0129.0726.0075.1091.0129.1923.0129.3852 0 .5775 0 .0975-.1125.2625-.345.51z" fill="currentColor"/></svg>