<svg enable-background="new 0 0 44 44" viewBox="0 0 44 44" xmlns="http://www.w3.org/2000/svg"><path d="m32 .1h-20c-6.6 0-12 5.4-12 12 0 6.7 5.3 12 12 12h20c6.7 0 12-5.3 12-12s-5.3-12-12-12zm-20 21.5c-5.2 0-9.5-4.3-9.5-9.5s4.3-9.5 9.5-9.5 9.5 4.3 9.5 9.5-4.3 9.5-9.5 9.5z" fill="currentColor" /><path d="m12.2 41.6h1v-8.6h-1zm2.3 0h1v-6.2h-1zm0-7.3h1v-1.2h-1zm4.8 9.4c1.6 0 2.7-.8 2.7-2.4v-5.9h-1v.8c-.4-.6-1-.9-1.9-.9-1.4 0-2.7 1.1-2.7 3.1 0 1.8 1.1 3.1 2.7 3.1.9 0 1.4-.4 1.8-1v.9c0 1.1-.6 1.6-1.8 1.6-1 0-1.6-.3-1.7-.9h-.9c.2 1 1.1 1.6 2.8 1.6zm-.1-3.1c-1.2 0-1.8-.9-1.8-2.2s.6-2.3 1.8-2.3c1.3 0 1.9.8 1.9 2.2 0 1.3-.5 2.3-1.9 2.3zm5.1-7.5h-1v8.6h1v-3.8c0-1 .7-1.7 1.7-1.7.9 0 1.4.5 1.4 1.3v4.3h1v-4.4c0-1.3-.8-2-2.1-2-.9 0-1.5.4-2 1zm4.8 3.1h.9v4.2c0 .9.6 1.2 1.4 1.2.3 0 .6 0 .8-.1v-.8c-.1 0-.3.1-.5.1-.4 0-.6-.1-.6-.6v-4h1.2v-.8h-1.3v-2h-1v2h-.9z" fill="currentColor" /></svg>