<svg fill="none" height="44" viewBox="0 0 44 44" width="44" xmlns="http://www.w3.org/2000/svg"><path d="m22 23.6362-1.595-1.4387c-5.665-5.0899-9.405-8.4468-9.405-12.56672 0-3.35695 2.662-5.99455 6.05-5.99455 1.914 0 3.751.88283 4.95 2.27793 1.199-1.3951 3.036-2.27793 4.95-2.27793 3.388 0 6.05 2.6376 6.05 5.99455 0 4.11992-3.74 7.47682-9.405 12.57762z" stroke="currentColor"/><path d="m11.0944 41.6362h.972v-8.58h-.972zm2.3312 0h.972v-6.204h-.972zm0-7.38h.972v-1.2h-.972zm6.3769 7.38h1.14l-2.664-3.972 2.376-2.232h-1.236l-2.724 2.652v-5.028h-.972v8.58h.972v-2.484l.912-.864zm4.0798.168c1.404 0 2.376-.756 2.664-2.088h-.948c-.216.84-.816 1.272-1.716 1.272-1.248 0-1.932-.96-2.004-2.22h4.8c0-2.052-.996-3.492-2.856-3.492-1.764 0-2.94 1.464-2.94 3.264s1.104 3.264 3 3.264zm-.06-5.76c1.116 0 1.752.756 1.812 1.992h-3.732c.144-1.128.768-1.992 1.92-1.992zm6.2065 5.772c.876 0 1.452-.336 1.92-.936h.024v.756h.972v-8.58h-.972v3.252h-.024c-.396-.588-1.068-1.02-1.944-1.02-1.536 0-2.724 1.2-2.724 3.264 0 1.992 1.056 3.264 2.748 3.264zm.036-.816c-1.188 0-1.788-1.032-1.788-2.436 0-1.392.6-2.448 1.7759-2.448 1.2841 0 1.9801 1.008 1.9801 2.448 0 1.404-.588 2.436-1.968 2.436z" fill="currentColor"/></svg>