<svg enable-background="new 0 0 111 48" viewBox="0 0 111 48" xmlns="http://www.w3.org/2000/svg"><path d="m35.1 20.2c-3.5 0-5.3 2.9-5.3 6.6s1.8 6.5 5.3 6.5 5.3-2.9 5.3-6.5-1.7-6.6-5.3-6.6z"/><path d="m87 0h-63c-13.3 0-24 10.7-24 24s10.7 24 24 24h63c13.3 0 24-10.7 24-24s-10.7-24-24-24zm-62.6 35h-2.6v-22.9h2.6zm10.7.4c-4.9 0-8-3.9-8-8.7s3.1-8.7 8-8.7c5 0 8 3.9 8 8.7s-3 8.7-8 8.7zm30.8-.4h-1.9l-.8-3h-.1c-1.7 2.3-4.1 3.5-7.1 3.5-6.4 0-10.8-4.9-10.8-11.8 0-6.7 3.8-12 11-12 5.3 0 8.6 2.9 9.3 7.4h-3c-.6-3-2.8-4.9-6.4-4.9-5.5 0-8 4.1-8 9.5 0 5.6 3.3 9.3 7.9 9.3 4.7 0 6.9-3.2 6.9-7v-.5h-6.9v-2.5h9.8v12zm6.1 0h-2.6v-16.5h2.6zm0-19.7h-2.6v-3.2h2.6zm17 19.7h-2.6v-11.4c0-2.1-1.4-3.4-3.7-3.4-2.6 0-4.5 1.9-4.5 4.6v10.2h-2.6v-16.5h2.6v2.2h.1c1.2-1.6 2.8-2.6 5.2-2.6 3.5 0 5.6 1.9 5.6 5.3v11.6z"/></svg>