<svg width="919" height="227" viewBox="0 0 919 227" fill="none" xmlns="http://www.w3.org/2000/svg">
<path d="M174.88 0.330017V38.63H139.8V67.81H110.59V222.28H64.14V67.9H62.81L34.88 48.76V38.63H0V0.330017H174.88Z" fill="currentColor"/>
<path d="M404.77 0.330017L327.41 139.37V222.28H280.95V139.37L203.74 0.330017H254.35L278.86 47.08L313.15 42L330.33 47.13L354.94 0.330017H404.77Z" fill="currentColor"/>
<path d="M439.33 0H484.24V222.28H439.33V0V0Z" fill="currentColor"/>
<path d="M672.45 0.330017V152.76C672.45 199.98 644.15 226.9 596.62 226.9C549.09 226.9 521.56 199.36 521.56 156.91H565.19V156.88H625.85C625.96 155.45 626 153.97 626 152.45V0.330017H672.45V0.330017Z" fill="currentColor"/>
<path d="M852.19 168.44H774.21L757.29 222.27H709.61L786.67 0.330017H841.27L918.48 222.28H869.11L852.19 168.45V168.44Z" fill="currentColor"/>
<path d="M139.8 97C155.921 97 168.99 83.9312 168.99 67.81C168.99 51.6888 155.921 38.62 139.8 38.62C123.679 38.62 110.61 51.6888 110.61 67.81C110.61 83.9312 123.679 97 139.8 97Z" fill="#DA0000"/>
<path d="M304.62 62.68C320.708 62.68 333.75 49.638 333.75 33.55C333.75 17.4619 320.708 4.41998 304.62 4.41998C288.532 4.41998 275.49 17.4619 275.49 33.55C275.49 49.638 288.532 62.68 304.62 62.68Z" fill="#DA0000"/>
<path d="M596.18 187.81C612.456 187.81 625.65 174.616 625.65 158.34C625.65 142.064 612.456 128.87 596.18 128.87C579.904 128.87 566.71 142.064 566.71 158.34C566.71 174.616 579.904 187.81 596.18 187.81Z" fill="#DA0000"/>
<path d="M814.35 133.57C830.438 133.57 843.48 120.528 843.48 104.44C843.48 88.3519 830.438 75.31 814.35 75.31C798.262 75.31 785.22 88.3519 785.22 104.44C785.22 120.528 798.262 133.57 814.35 133.57Z" fill="#DA0000"/>
<path d="M34.87 97.19C51.0464 97.19 64.16 84.0764 64.16 67.9C64.16 51.7236 51.0464 38.61 34.87 38.61C18.6936 38.61 5.58002 51.7236 5.58002 67.9C5.58002 84.0764 18.6936 97.19 34.87 97.19Z" fill="#DA0000"/>
</svg>
