<svg fill="none" height="48" viewBox="0 0 116 48" width="116" xmlns="http://www.w3.org/2000/svg"><rect fill="#000" height="48" rx="24" width="116"/><path d="m20.26 35h2.592v-10.304c0-2.592 2.24-4.448 4.256-4.448 1.696 0 2.848 1.216 2.848 3.264v11.488h2.592v-10.304c0-2.592 1.92-4.448 4.064-4.448 1.664 0 3.04 1.216 3.04 3.264v11.488h2.592v-11.616c0-3.424-2.08-5.312-5.024-5.312-2.016 0-4 1.056-5.056 2.944h-.064c-.704-1.92-2.304-2.944-4.32-2.944-2.08 0-3.84 1.152-4.864 2.752h-.064v-2.368h-2.592zm25.7903 0h16.544v-2.656h-13.664v-8.032h12.064v-2.432h-12.064v-7.232h13.28v-2.528h-16.16zm22.1142-16.544h-2.592v16.544h2.592v-10.176c0-2.72 1.92-4.576 4.544-4.576 2.336 0 3.744 1.216 3.744 3.36v11.392h2.592v-11.616c0-3.424-2.112-5.312-5.568-5.312-2.4 0-4.064.992-5.248 2.56h-.064zm27.4343 16.544v-16.544h-2.592v10.176c0 2.624-1.696 4.608-4.32 4.608-2.336 0-3.712-1.248-3.712-3.392v-11.392h-2.592v11.456c0 3.424 2.176 5.472 5.568 5.472 2.4 0 3.808-1.056 4.992-2.656h.064v2.272z" fill="#fff"/></svg>