<svg fill="none" height="64" viewBox="0 0 88 64" width="88" xmlns="http://www.w3.org/2000/svg"><g fill="#000"><path d="m4.5 36.168c1.092 0 1.968-.312 2.568-.9.612-.6 1.02-1.56 1.032-2.412h-1.068c-.108 1.26-.876 2.364-2.496 2.364-1.788 0-2.952-1.416-2.952-3.516 0-2.016 1.056-3.54 2.94-3.54 1.356 0 2.208.732 2.412 1.8h1.056c-.228-1.584-1.44-2.736-3.444-2.736-2.556 0-4.068 1.956-4.068 4.476 0 2.604 1.584 4.464 4.02 4.464zm4.81181-.168h5.57999v-.996h-4.5v-7.584h-1.07999zm9.98149.18c2.592 0 4.2-1.908 4.2-4.476s-1.608-4.476-4.2-4.476-4.2 1.908-4.2 4.476 1.608 4.476 4.2 4.476zm0-.948c-2.016 0-3.096-1.512-3.096-3.528s1.08-3.54 3.096-3.54 3.096 1.524 3.096 3.54-1.08 3.528-3.096 3.528zm8.6073.936c1.848 0 3.156-.9 3.156-2.508 0-1.932-1.524-2.34-3.192-2.676-1.284-.252-2.244-.54-2.244-1.512 0-.888.768-1.38 1.932-1.38 1.26 0 2.052.612 2.208 1.836h1.02c-.216-1.584-1.104-2.676-3.252-2.676-1.74 0-2.916.852-2.916 2.268 0 1.62 1.296 2.052 2.808 2.388 1.536.336 2.568.612 2.568 1.788 0 1.068-.852 1.608-2.04 1.608-1.62 0-2.508-.756-2.652-2.208h-1.056c.096 1.728 1.248 3.072 3.66 3.072zm4.3917-.168h6.204v-.996h-5.124v-3.012h4.524v-.912h-4.524v-2.712h4.98v-.948h-6.06z"/><path d="m48.7393 36.2124v-12.636h3.1315v-3.9309h3.0284c4.5365-5.2959 11.7671-12.8565 19.2033-17.05693 12.2549-6.92293 15.6 1.67821 13.1458 6.71211-2.4542 5.03392-10.4757 19.51062-10.4757 19.51062s-1.114 1.6783-3.1187 1.8883c-.9597.1002-2.3535.195-3.5442.2673v1.8115l3.5442 2.5365s1.4809 1.0488 1.1867 2.6224c-.2943 1.5735.3726 2.2022 1.7097 3.4633 1.337 1.2611 2.231 2.3076.894 3.1449-1.3371.8372-1.5594 2.0983-.8908 2.9363.6685.838 1.7824 2.0976.4454 2.727-1.3371.6294-1.5594 2.9363.2223 4.1952 1.7817 1.2588 5.3482 4.8253 7.5761 5.6648s3.5649 2.727 2.6741 3.5665c-.8909.8395-2.8964.2093-4.6797-1.679s-4.6789-5.6641-7.3522-5.6641-1.1147 3.7766-2.2279 3.9866c-1.1131.2101-2.0055-3.7765-3.7888-3.3571-1.7833.4193-1.5594 1.8882-3.1187 1.6782-1.5594-.2101-1.5594-6.2935-2.6733-4.6153-1.114 1.6782-2.451 3.1471-4.9028 1.2596-1.1677-.8875-2.2552-1.8646-3.2515-2.9213v-10.9072h-.0256v-.0091h-8.4509v-5.195zm21.8462-16.5639c.0928.7213.3711 1.2484.8485 1.5058.5102.2779 1.1891.2161 1.96-.1242 1.744-.7717 3.9615-2.9747 5.7664-5.9178 2.6013-4.2426 3.3586-8.41591 1.6945-9.32089-1.6641-.90499-5.1251 1.80018-7.7256 6.04199-1.8569 3.0267-2.7789 6.018-2.5438 7.8121zm-4.73 19.7953c.9884 0 1.7888-2.9536 1.7888-6.5984s-.7996-6.5984-1.7888-6.5984-1.7897 2.9543-1.7897 6.5984c0 3.644.8013 6.5954 1.7897 6.5954z"/></g></svg>