<svg fill="none" height="64" viewBox="0 0 41 64" width="41" xmlns="http://www.w3.org/2000/svg"><path d="m39.2607 36.2124v-12.636h-3.1315v-3.9309h-3.0284c-4.5365-5.2959-11.7671-12.8565-19.2033-17.05693-12.25493-6.92293-15.59996 1.67821-13.145765 6.71211 2.454195 5.03392 10.475665 19.51062 10.475665 19.51062s1.114 1.6783 3.1187 1.8883c.9597.1002 2.3535.195 3.5442.2673v1.8115l-3.5442 2.5365s-1.4809 1.0488-1.1867 2.6224c.2943 1.5735-.3726 2.2022-1.7097 3.4633-1.337 1.2611-2.23105 2.3076-.894 3.1449 1.3371.8372 1.5594 2.0983.8908 2.9363-.6685.838-1.78243 2.0976-.4454 2.727 1.3371.6294 1.5594 2.9363-.2223 4.1952-1.78165 1.2588-5.34819 4.8253-7.57607 5.6648-2.227885.8395-3.564936 2.727-2.674102 3.5665.890832.8395 2.896402.2093 4.679672-1.679s4.67888-5.6641 7.3522-5.6641c2.6733 0 1.1147 3.7766 2.2279 3.9866 1.1131.2101 2.0055-3.7765 3.7888-3.3571 1.7833.4193 1.5594 1.8882 3.1187 1.6782 1.5594-.2101 1.5594-6.2935 2.6733-4.6153 1.114 1.6782 2.451 3.1471 4.9028 1.2596 1.1677-.8875 2.2552-1.8646 3.2515-2.9213v-10.9072h.0256v-.0091h8.4509v-5.195zm-21.8462-16.5639c-.0928.7213-.3711 1.2484-.8485 1.5058-.5102.2779-1.1891.2161-1.96-.1242-1.744-.7717-3.9615-2.9747-5.76639-5.9178-2.60133-4.2426-3.35862-8.41591-1.6945-9.32089 1.66411-.90499 5.12509 1.80018 7.72559 6.04199 1.8569 3.0267 2.7789 6.018 2.5438 7.8121zm4.73 19.7953c-.9884 0-1.7888-2.9536-1.7888-6.5984s.7996-6.5984 1.7888-6.5984 1.7897 2.9543 1.7897 6.5984c0 3.644-.8013 6.5954-1.7897 6.5954z" fill="currentColor"/></svg>