<svg enable-background="new 0 0 142 48" viewBox="0 0 142 48" xmlns="http://www.w3.org/2000/svg"><path d="m56 30.8c0 2.2 1.7 2.7 3.4 2.7 3.5 0 5-2.5 5-4.4v-2.8c-.9.5-2.4 1-3.8 1.2-2.5.5-4.6.9-4.6 3.3z"/><path d="m44.1 20.3c-3.1 0-4.7 2.3-5.1 5.3h10c-.2-3.3-1.9-5.3-4.9-5.3z"/><path d="m80.8 14.8h-6.9v8.4h6.8c3.2 0 4.8-1.6 4.8-4.2-.1-2.8-1.3-4.2-4.7-4.2z"/><path d="m118 0h-94c-13.3 0-24 10.7-24 24s10.7 24 24 24h94c13.3 0 24-10.7 24-24s-10.7-24-24-24zm-90.1 35.7c-4.5 0-7.1-2.1-7.3-5.9h2.7c.4 2.9 2.3 3.7 4.7 3.7 2.7 0 3.8-1.2 3.8-2.7 0-1.9-1.3-2.3-4.3-3-3.3-.7-6.2-1.3-6.2-5 0-2.8 2.1-4.5 6-4.5 4.1 0 6.1 2 6.5 5.2h-2.7c-.3-2.2-1.4-3.1-3.9-3.1-2.4 0-3.3 1.1-3.3 2.4 0 1.8 1.6 2.1 4.4 2.7 3.3.7 6.1 1.4 6.1 5.2 0 3.3-2.7 5-6.5 5zm16.4-2.2c2.4 0 4-1.2 4.6-3.4h2.5c-.8 3.6-3.4 5.6-7.1 5.6-5.1 0-8-3.9-8-8.7s3.1-8.7 7.8-8.7c5 0 7.6 3.8 7.6 9.3h-12.8c.2 3.3 2.1 5.9 5.4 5.9zm24.4 1.6c-.3.1-.7.3-1.4.3-1.7 0-2.6-.8-2.8-2.5-1 1.3-2.7 2.6-5.5 2.6-3.1 0-5.6-1.5-5.6-4.6 0-3.9 3.1-4.7 7.2-5.3 2.3-.4 4-.6 4-2.4 0-1.9-1.3-2.9-3.7-2.9-2.7 0-4 1.2-4.1 3.6h-2.5c.1-3.2 2.2-5.6 6.6-5.6 3.5 0 6.1 1.3 6.1 5.2v7.9c0 1.3.3 2.1 1.8 1.8h.1v1.9zm20.1.1h-3.1c-.5-.4-.6-1.3-.8-5.1-.2-3.4-1.6-4.5-4.6-4.5h-6.4v9.7h-2.9v-23h10.7c4 0 6.8 2.5 6.8 6.3 0 2.8-1.2 4.8-4 5.7v.1c2.3.8 3.1 2.4 3.3 5.8.3 3.7.6 4.6 1.1 4.9v.1zm9.6-1.7c2.7 0 4.3-1.5 4.5-4.1h2.6c-.4 4-2.9 6.3-7.1 6.3-4.9 0-8-3.9-8-8.7s3.1-8.7 8-8.7c3.9 0 6.5 2.2 7.1 5.8h-2.6c-.4-2.2-2-3.6-4.4-3.6-3.5 0-5.3 2.9-5.3 6.6-.1 3.5 1.7 6.4 5.2 6.4zm23 1.7h-2.6v-11.4c0-2.1-1.4-3.4-3.7-3.4-2.6 0-4.5 1.9-4.5 4.6v10.2h-2.6v-22.9h2.6v8.5h.1c1.2-1.6 2.8-2.6 5.2-2.6 3.5 0 5.6 1.9 5.6 5.3v11.7z"/></svg>