<svg width="83" height="93" viewBox="0 0 83 93" fill="none" xmlns="http://www.w3.org/2000/svg">
<path d="M45.0081 1.37805C49.575 4.01477 50.7069 8.93916 48.4036 16.1512C44.7642 27.5817 43.1338 36.7045 43.5123 43.5197C49.3865 40.2299 56.622 34.2163 65.2186 25.4788C70.3932 20.1782 74.9151 18.6449 78.7844 20.8788C80.941 22.1239 82.2373 23.7604 82.6734 25.7882C83.1096 27.816 82.8149 29.7179 81.7895 31.494C80.2881 34.0946 75.9368 36.0647 68.7358 37.4045C61.5982 38.7808 53.9172 41.8309 45.6927 46.5546L48.1664 47.9828C53.4311 51.0224 59.1901 53.2056 65.4436 54.5326C71.6604 55.923 75.8471 57.2407 78.0037 58.4858C80.4774 59.914 81.9641 61.6604 82.4636 63.7248C82.99 65.8893 82.7039 67.923 81.6052 69.8259C80.3235 72.0459 78.6236 73.3057 76.5055 73.6051C74.3508 73.968 72.1635 73.5086 69.9435 72.2268C68.4846 71.3845 65.5404 68.5007 61.1108 63.5752C56.7447 58.6864 50.7509 54.1265 43.1296 49.8954C43.9324 57.2939 44.4483 61.8204 44.6771 63.4748C44.9694 65.1659 45.5457 67.3169 46.4062 69.9281C48.8439 77.4247 50.1637 81.9502 50.3657 83.5046C50.5946 85.159 50.1414 86.9694 49.0061 88.9357C47.9075 90.8386 46.2942 92.0215 44.1664 92.4844C42.0019 93.0108 39.9365 92.7063 37.9701 91.5711C33.9741 89.2639 33.0214 84.9081 35.1122 78.5037C38.5756 67.8174 40.0671 58.276 39.5866 49.8796L37.7013 50.9478C31.8271 54.2375 25.1053 60.1671 17.5359 68.7366C13.1715 73.6592 8.80103 74.8571 4.42439 72.3303C2.07749 70.9753 0.809254 69.1436 0.61967 66.8353C0.493515 64.5635 0.888202 62.6348 1.80373 61.0491C3.34182 58.385 8.15669 56.3443 16.2484 54.9267C24.4034 53.5458 31.0778 51.1409 36.2713 47.7118L37.7063 46.7643L36.3743 45.9953C28.8896 41.674 22.1291 38.9548 16.0928 37.8378C10.0833 36.8208 6.50764 35.9827 5.36591 35.3235C3.27273 34.115 1.8227 32.3053 1.01582 29.8942C0.235742 27.5833 0.504884 25.286 1.82324 23.0026C3.03174 20.9094 4.74504 19.6997 6.96315 19.3734C9.18126 19.0472 11.3686 19.5066 13.5252 20.7517C14.0961 21.0813 17.4379 24.4484 23.5506 30.8531C29.7267 37.2944 34.6971 41.1366 38.4617 42.3798L39.9585 42.8634C40.0901 35.7507 38.8469 28.3094 36.2288 20.5394C33.6106 12.7694 33.1438 7.42558 34.8284 4.50781C36.1468 2.22435 37.8016 0.896272 39.7928 0.523582C41.7473 0.214322 43.4858 0.499146 45.0081 1.37805Z" fill="currentColor"/>
</svg>
