<svg enable-background="new 0 0 132 48" viewBox="0 0 132 48" xmlns="http://www.w3.org/2000/svg"><path d="m62.9 24.3h-7v8.1h7.2c1.6 0 2.8-.4 3.6-1.2.6-.7 1-1.6 1-2.7 0-2.7-2-4.2-4.8-4.2z"/><path d="m66.8 18.2c0-2.2-1.5-3.6-4.1-3.6h-6.8v7.3h6.5c2.8 0 4.4-1.4 4.4-3.7z"/><path d="m108 0h-84c-13.3 0-24 10.7-24 24s10.7 24 24 24h84c13.3 0 24-10.7 24-24s-10.7-24-24-24zm-81 35.5c-4.5 0-7.1-2.1-7.3-5.9h2.7c.4 2.9 2.3 3.7 4.7 3.7 2.7 0 3.8-1.2 3.8-2.7 0-1.9-1.3-2.3-4.3-3-3.3-.7-6.2-1.3-6.2-5 0-2.8 2.1-4.5 6-4.5 4.1 0 6.1 2 6.5 5.2h-2.7c-.3-2.2-1.4-3.1-3.9-3.1-2.4 0-3.3 1.1-3.3 2.4 0 1.8 1.6 2.1 4.4 2.7 3.3.7 6.1 1.4 6.1 5.2.1 3.3-2.7 5-6.5 5zm22.2-.5h-2.6v-2.3h-.1c-1.2 1.6-2.6 2.7-5 2.7-3.4 0-5.6-2-5.6-5.5v-11.4h2.6v11.4c0 2.1 1.4 3.4 3.7 3.4 2.6 0 4.3-2 4.3-4.6v-10.2h2.6v16.5zm19.8-2.2c-1.3 1.4-3.3 2.2-5.7 2.2h-10.2v-22.9h9.7c2.4 0 4.2.6 5.5 2 .9 1 1.5 2.3 1.5 3.9 0 2.5-1.4 4.1-3.7 4.8v.1c2.6.6 4.6 2.5 4.6 5.5 0 1.8-.7 3.3-1.7 4.4zm26.2 2.2h-2.6v-11.5c0-2-1.4-3.3-3-3.3-2.1 0-4.1 1.9-4.1 4.4v10.4h-2.5v-11.5c0-2-1.2-3.3-2.8-3.3-2 0-4.3 1.9-4.3 4.4v10.4h-2.6v-16.5h2.6v2.4h.1c1-1.6 2.8-2.8 4.9-2.8 2 0 3.6 1 4.3 2.9h.1c1.1-1.9 3-2.9 5.1-2.9 2.9 0 5 1.9 5 5.3v11.6zm6.1 0h-2.6v-16.5h2.6zm0-19.7h-2.6v-3.2h2.6zm10.6 5.3h-3.2v10.8c0 1.2.6 1.5 1.7 1.5.5 0 1.1-.1 1.4-.2h.1v2.2c-.6.1-1.3.2-2.1.2-2.1 0-3.6-.9-3.6-3.2v-11.3h-2.4v-2.1h2.4v-5.2h2.6v5.2h3.2v2.1z"/></svg>